<?xml version="1.0" encoding="utf-8" ?>
<svg baseProfile="full" height="200mm" version="1.1" viewBox="0,0,200,200" width="200mm" xmlns="http://www.w3.org/2000/svg" xmlns:ev="http://www.w3.org/2001/xml-events" xmlns:xlink="http://www.w3.org/1999/xlink"><defs /><rect fill="#1a1a1a" height="200" width="200" x="0" y="0" /><text alignment-baseline="middle" fill="#e1ed5e" style="dominant-baseline: central; font-size:9.0px; font-family:Arial;" text-anchor="middle" x="100.0" y="100.0">2021</text><line stroke="#e1ed5e" stroke-width="0.3" x1="100.0" x2="100.0" y1="15.0" y2="10.0" /><path d="M 100.0 14.0 a86.0,86.0 0 0,1 42.46469731375804,11.215312516191453" fill="none" id="id49" stroke="none" /><text fill="#e1ed5e" style="font-size:6.75px; font-family:Arial;" text-anchor="middle"><textPath startOffset="22.20632615414155" xlink:href="#id49">January</textPath></text><line stroke="#e1ed5e" stroke-width="0.3" x1="143.23703022742887" x2="145.7803849466894" y1="26.81831364943548" y2="22.513508569990506" /><path d="M 143.74570117128098 25.957352633546492 a86.0,86.0 0 0,1 28.547481713284135,27.462654790039103" fill="none" id="id50" stroke="none" /><text fill="#e1ed5e" style="font-size:6.75px; font-family:Arial;" text-anchor="middle"><textPath startOffset="19.985693538727396" xlink:href="#id50">February</textPath></text><line stroke="#e1ed5e" stroke-width="0.3" x1="172.23445277983987" x2="176.4835382374775" y1="55.19839476539836" y2="52.563006222186495" /><path d="M 173.08426987136738 54.67131705675599 a86.0,86.0 0 0,1 12.851231095245387,41.99856678651699" fill="none" id="id51" stroke="none" /><text fill="#e1ed5e" style="font-size:6.75px; font-family:Arial;" text-anchor="middle"><textPath startOffset="22.20632615414155" xlink:href="#id51">March</textPath></text><path d="M 119.7369772167798 92.82701384747503 l 23.353947696820057 -8.48749743165656 a45.84843024575564,45.84843024575564 0 0,0 0.26318509599200895,0.7440597072555865 l -23.496585873621875 8.084240097974359" fill="#ffbb11" stroke="none" /><path d="M 120.45610955862082 95.25157060432595 l 27.799587240260443 -6.453053884022994 a49.538727286950895,49.538727286950895 0 0,0 0.1856655189646837,0.8323021161689127 l -27.906547146227165 5.973573598304117" fill="#fff617" stroke="none" /><path d="M 120.67395015179393 96.31383870115 l 26.375377534069074 -4.702724694351968 a47.79134486388362,47.79134486388362 0 0,0 0.13743001675118963,0.8111197383327149 l -26.452419412340486 4.248019167703415" fill="#ffda14" stroke="none" /><path d="M 120.87857604477298 97.74499172005257 l 31.733294804796163 -3.4273813684120022 a52.917846766544905,52.917846766544905 0 0,0 0.09001798043849359,0.9064687783028285 l -31.787589910916886 2.880637059404739" fill="#d5ff1c" stroke="none" /><line stroke="#e1ed5e" stroke-width="0.3" x1="184.98032266829074" x2="189.97916517819016" y1="98.17113171792111" y2="98.06355123074" /><path d="M 185.9800911702706 98.14961562048488 a86.0,86.0 0 0,1 -9.607161424134198,41.387399972396054" fill="none" id="id52" stroke="none" /><text fill="#e1ed5e" style="font-size:6.75px; font-family:Arial;" text-anchor="middle"><textPath startOffset="21.466115282336823" xlink:href="#id52">April</textPath></text><path d="M 120.99980553446 99.90962569577887 l 23.048004930586437 -0.0991888903860979 a44.04821836316883,44.04821836316883 0 0,0 -0.003263139652387852,0.758238735252378 l -23.04629749364455 -0.29755932306996474" fill="#ff9d0e" stroke="none" /><path d="M 120.9904718944345 100.63252640178507 l 23.95772627762399 0.721941577757244 a44.96860129492853,44.96860129492853 0 0,0 -0.02997450032350579,0.7735086646516005 l -23.94174964444928 -1.1342274894228508" fill="#ffad10" stroke="none" /><path d="M 120.76222939487914 103.15116336523771 l 35.74722032680296 5.425493041257179 a57.15660016973007,57.15660016973007 0 0,0 -0.15600552611439103,0.9714465600332166 l -35.64853304632728 -6.040018830983601" fill="#98ff23" stroke="none" /><line stroke="#e1ed5e" stroke-width="0.3" x1="174.80103733775053" x2="179.2010983576182" y1="140.37084112569926" y2="142.7455964860345" /><path d="M 175.68104954172406 140.8457921977663 a86.0,86.0 0 0,1 -30.038265399797805,32.042727171017184" fill="none" id="id53" stroke="none" /><text fill="#e1ed5e" style="font-size:6.75px; font-family:Arial;" text-anchor="middle"><textPath startOffset="22.206326154141568" xlink:href="#id53">May</textPath></text><path d="M 118.48025628344425 109.97397251340804 l 23.03601740774382 12.432760721454923 a47.1769294831695,47.1769294831695 0 0,0 -0.3918461634051126,0.711314605992346 l -22.8185948348872 -12.827445845845073" fill="#ffd013" stroke="none" /><path d="M 117.94076556474637 110.91462005526583 l 24.265224076344946 14.76222964919713 a49.40289639615765,49.40289639615765 0 0,0 -0.4482380317280093,0.7227024292419494 l -24.007521404948974 -15.177728409804352" fill="#fff417" stroke="none" /><path d="M 117.55443506779139 111.5257021239791 l 20.90309925095436 13.724332028007689 a46.00593625342283,46.00593625342283 0 0,0 -0.4403357295052531,0.6582421700740173 l -20.663760416038386 -14.082111112287512" fill="#ffbd11" stroke="none" /><path d="M 117.35343817320211 111.8261652097733 l 17.180651371078827 11.708413024437837 a41.79090467212474,41.79090467212474 0 0,0 -0.4102256751421637,0.5909606811188929 l -16.976564788774528 -12.00241496774375" fill="#ff770b" stroke="none" /><path d="M 116.27256486870786 113.27417163493432 l 24.55447525463467 20.03005190426689 a52.68793515390506,52.68793515390506 0 0,0 -0.5793264278279178,0.6978360023323016 l -24.20605282691321 -20.449749163712962" fill="#d9ff1c" stroke="none" /><path d="M 115.32070863581623 114.36230785411682 l 45.96212590744871 43.08692356235047 a84.0,84.0 0 0,0 -0.997973794484142,1.0463715336699715 l -45.21364556158561 -43.87170221260295" fill="#4dd2ff" stroke="none" /><path d="M 114.55890576462653 115.13401014063108 l 19.211615468569402 19.97051069769683 a48.711143362174695,48.711143362174695 0 0,0 -0.6092700870045412,0.5761028959841912 l -18.86500954717405 -20.298248230426942" fill="#ffe915" stroke="none" /><path d="M 114.0293411484842 115.62618273729858 l 13.125071208329514 14.618987375866372 a40.64643189282626,40.64643189282626 0 0,0 -0.5246441043624818,0.46293742277584876 l -12.871484751060445 -14.84274794041451" fill="#ff6309" stroke="none" /><path d="M 112.92097659922987 116.55440617244103 l 15.27856932882246 19.57496327469565 a45.831710934635936,45.831710934635936 0 0,0 -0.6260857710065552,0.48005587154096085 l -14.939354829322411 -19.835058488063982" fill="#ffbb11" stroke="none" /><line stroke="#e1ed5e" stroke-width="0.3" x1="143.8653032363475" x2="146.44561519142675" y1="172.8068346515853" y2="177.08958963109032" /><path d="M 144.38136562736335 173.6633856474863 a86.0,86.0 0 0,1 -40.68145358897372,12.25698825130547" fill="none" id="id54" stroke="none" /><text fill="#e1ed5e" style="font-size:6.75px; font-family:Arial;" text-anchor="middle"><textPath startOffset="21.466115282336833" xlink:href="#id54">June</textPath></text><path d="M 109.2508944713604 118.85261126421891 l 6.896108403414747 14.05373841070018 a36.654516103285886,36.654516103285886 0 0,0 -0.5688210694591592,0.2730686805398613 l -6.653174665955355 -14.1703613677396" fill="#ff1c02" stroke="none" /><path d="M 103.41894727170886 120.7198165907248 l 2.2982794837636513 13.928243284666717 a35.1165877457108,35.1165877457108 0 0,0 -0.597256463581549,0.09327917641188724 l -2.058187156573585 -13.96574076842571" fill="#ff0000" stroke="none" /><path d="M 101.26447882468166 120.96189622390904 l 1.445416510315651 23.961390493976218 a45.0049466421633,45.0049466421633 0 0,0 -0.773682034201698,0.03999052385712191 l -1.0327464077004735 -23.982720824595543" fill="#ffad10" stroke="none" /><line stroke="#e1ed5e" stroke-width="0.3" x1="102.19456741930631" x2="102.32365962044197" y1="184.97166512339345" y2="189.96999836594603" /><path d="M 102.22038585953345 185.97133177190398 a86.0,86.0 0 0,1 -42.740103519485714,-10.115201625700543" fill="none" id="id55" stroke="none" /><text fill="#e1ed5e" style="font-size:6.75px; font-family:Arial;" text-anchor="middle"><textPath startOffset="22.20632615414155" xlink:href="#id55">July</textPath></text><path d="M 100.54218724476979 120.99299961872073 l 0.7657026123599693 29.647312444893966 a50.6571987162601,50.6571987162601 0 0,0 -0.8718835053892282,0.015010265237431075 l -0.2552594170780731 -29.65610018741056" fill="#f7ff18" stroke="none" /><path d="M 95.86986931433489 120.58985236759428 l -7.059420992757877 35.19318082259993 a56.89422517850477,56.89422517850477 0 0,0 -0.9585553649292456,-0.20087459658016968 l 7.66416781911651 -35.06645024529321" fill="#9cff22" stroke="none" /><path d="M 94.46302465271185 120.25689768951611 l -8.282607640866049 30.301730648954702 a52.41331675666123,52.41331675666123 0 0,0 -0.8682361559953623,-0.2453722102608411 l 8.802974964966026 -30.154669645355337" fill="#ddff1b" stroke="none" /><path d="M 94.11515582081647 120.15858648285463 l -9.847820425614646 33.733797135970654 a56.14183598427912,56.14183598427912 0 0,0 -0.9253378292871494,-0.27879669730225914 l 10.42703322934204 -33.55928506956267" fill="#a6ff21" stroke="none" /><path d="M 93.42475214034765 119.94407469862007 l -18.596568494398674 56.40720458101507 a80.3936451854182,80.3936451854182 0 0,0 -1.310532286974958,-0.44460370591459814 l 19.564770514310858 -56.078737888202355" fill="#47fdff" stroke="none" /><path d="M 90.7491055286396 118.85261126421891 l -20.26508456919139 41.298683365404784 a67.00277057213447,67.00277057213447 0 0,0 -1.0310325468958945,-0.5169811228981726 l 20.972971023770047 -40.94373440159731" fill="#32ff4b" stroke="none" /><path d="M 90.10565033884886 118.52300852407294 l -9.958240778360196 18.64261777068392 a42.135604007068636,42.135604007068636 0 0,0 -0.6368037866657088,-0.347236198436757 l 10.277667376894545 -18.468440920487396" fill="#ff7d0b" stroke="none" /><line stroke="#e1ed5e" stroke-width="0.3" x1="58.666819895761336" x2="56.23545636021788" y1="174.27360380694188" y2="178.64263932499728" /><path d="M 58.180547188652646 175.14741091055294 a86.0,86.0 0 0,1 -31.652253787137756,-30.449443065178592" fill="none" id="id56" stroke="none" /><text fill="#e1ed5e" style="font-size:6.75px; font-family:Arial;" text-anchor="middle"><textPath startOffset="22.20632615414155" xlink:href="#id56">August</textPath></text><path d="M 89.7882731507175 118.34994917583269 l -30.177777741752315 54.227918154669304 a83.0593697745966,83.0593697745966 0 0,0 -1.2433245384472311,-0.7059921217075443 l 31.106751047120753 -53.70042286716713" fill="#4cddff" stroke="none" /><path d="M 89.4739219176387 118.17145234162733 l -17.938690723236363 30.968045362946555 a56.78849617496441,56.78849617496441 0 0,0 -0.8416383126490834,-0.497254750187781 l 18.469096906913826 -30.654672040465027" fill="#9dff22" stroke="none" /><path d="M 88.54995079064634 117.60387380957326 l -19.74131418348416 30.351275996027862 a57.20662149770522,57.20662149770522 0 0,0 -0.8208477360411907,-0.5440131199891266 l 20.260836618265312 -30.006964854947416" fill="#98ff23" stroke="none" /><path d="M 88.24862548938628 117.40417183066458 l -12.85124368398372 19.03311422096058 a43.96549370628168,43.96549370628168 0 0,0 -0.623562838789126,-0.4288922064686895 l 13.176963407395736 -18.809081225126793" fill="#ff9c0e" stroke="none" /><path d="M 87.65650970185807 116.9893568818739 l -21.175278193656524 29.14527006669634 a57.0255350250265,57.0255350250265 0 0,0 -0.7891655975331083,-0.5838058427701275 l 21.673828761608195 -28.776454275186445" fill="#9aff23" stroke="none" /><path d="M 85.44109423537348 115.13401014063109 l -39.6125803519007 41.17735236660541 a78.13782346274115,78.13782346274115 0 0,0 -0.961281448230998,-0.9408162200194534 l 40.31551175250749 -40.48938604366339" fill="#44ffe5" stroke="none" /><path d="M 84.9287848128048 114.62390073753433 l -25.728002581324937 24.964394128217812 a56.8490040449335,56.8490040449335 0 0,0 -0.6754025747543835,-0.7081568994060604 l 26.153911707458278 -24.51783011222925" fill="#9dff22" stroke="none" /><path d="M 84.43433777217949 114.09645910891817 l -26.025811151642113 23.56930128034255 a56.11203225312508,56.11203225312508 0 0,0 -0.6421919228707441,-0.7215094331751195 l 26.427661924161196 -23.11781767742657" fill="#a7ff21" stroke="none" /><path d="M 83.72743513129214 113.27417163493432 l -14.214349000039173 11.595203941587346 a39.34384016344226,39.34384016344226 0 0,0 -0.4235684539014689,-0.5284667728691828 l 14.411835365995502 -11.348809335139904" fill="#ff4d07" stroke="none" /><path d="M 83.28015986056508 112.70617746262583 l -19.64341812765145 14.927939180101282 a45.67199310762202,45.67199310762202 0 0,0 -0.4702882827191901,-0.6300280081151313 l 19.897467677065723 -14.587598292476843" fill="#ffb811" stroke="none" /><path d="M 82.6465618267979 111.8261652097733 l -29.5863187291014 20.16273027553018 a56.803434864601435,56.803434864601435 0 0,0 -0.5436816195137494,-0.8127302534822289 l 29.929003454025878 -19.65046310784213" fill="#9dff22" stroke="none" /><path d="M 82.44556493220864 111.52570212397912 l -29.899323484285173 19.630976152610643 a56.76792934350959,56.76792934350959 0 0,0 -0.5292802134102228,-0.8214546449846649 l 30.232808561072442 -19.11339990770453" fill="#9eff22" stroke="none" /><line stroke="#e1ed5e" stroke-width="0.3" x1="26.63291911575756" x2="22.317208475507996" y1="142.92168965132927" y2="145.44649492493687" /><path d="M 25.769776987707644 143.4266507060508 a86.0,86.0 0 0,1 -11.730757126820373,-40.83630448921669" fill="none" id="id57" stroke="none" /><text fill="#e1ed5e" style="font-size:6.75px; font-family:Arial;" text-anchor="middle"><textPath startOffset="21.46611528233685" xlink:href="#id57">September</textPath></text><path d="M 81.35079622478065 109.6543875284942 l -32.0173604737605 16.574863430036203 a57.05325879072615,57.05325879072615 0 0,0 -0.44398664021946854,-0.8760277621764957 l 32.29792578376623 -16.021281456157023" fill="#9aff23" stroke="none" /><path d="M 80.87730276802145 108.67885076344099 l -32.77532464560645 14.875106156408927 a56.9929255380739,56.9929255380739 0 0,0 -0.3977533973738594,-0.8968289072478304 l 33.02651912771159 -14.3087289126684" fill="#9aff22" stroke="none" /><path d="M 80.73074385275274 108.34839909993369 l -32.971520193916106 14.284900642086138 a56.932986659225676,56.932986659225676 0 0,0 -0.38185501470206834,-0.9025924566078553 l 33.212526189810475 -13.715233659812123" fill="#9bff22" stroke="none" /><path d="M 80.45479744820244 107.68017299344265 l -33.68071847749306 13.234641276551878 a57.18765710679752,57.18765710679752 0 0,0 -0.3521281524073254,-0.9192954908229105 l 33.9035409094939 -12.65292221889581" fill="#98ff23" stroke="none" /><path d="M 80.0844068197444 106.66101706037122 l -16.77598845113947 5.610937332683377 a38.68944335653513,38.68944335653513 0 0,0 -0.20580526794251747,-0.6334034850106307 l 16.870085970098234 -5.321334947694943" fill="#ff4106" stroke="none" /><path d="M 79.97269907076064 106.31721596034903 l -34.39508150422504 10.849248163978555 a57.065604353814386,57.065604353814386 0 0,0 -0.2874291976852936,-0.939335248577622 l 34.57673747441646 -10.255585942848885" fill="#99ff23" stroke="none" /><line stroke="#e1ed5e" stroke-width="0.3" x1="15.007084014347285" x2="10.007500721073583" y1="101.09737516637583" y2="101.16192664675087" /><path d="M 14.007167355692545 101.11028546245083 a86.0,86.0 0 0,1 10.666146001902534,-42.60595125391555" fill="none" id="id58" stroke="none" /><text fill="#e1ed5e" style="font-size:6.75px; font-family:Arial;" text-anchor="middle"><textPath startOffset="22.20632615414155" xlink:href="#id58">October</textPath></text><line stroke="#e1ed5e" stroke-width="0.3" x1="26.266209847984243" x2="21.928928074336255" y1="57.711370442889674" y2="55.22380399835377" /><path d="M 25.398753493254645 57.213857153982495 a86.0,86.0 0 0,1 29.58750427330803,-30.492523968695096" fill="none" id="id59" stroke="none" /><text fill="#e1ed5e" style="font-size:6.75px; font-family:Arial;" text-anchor="middle"><textPath startOffset="21.46611528233685" xlink:href="#id59">November</textPath></text><line stroke="#e1ed5e" stroke-width="0.3" x1="56.762969772571076" x2="54.21961505331055" y1="26.818313649435495" y2="22.513508569990535" /><path d="M 56.25429882871897 25.957352633546506 a86.0,86.0 0 0,1 42.265352541879196,-11.944610805530505" fill="none" id="id60" stroke="none" /><text fill="#e1ed5e" style="font-size:6.75px; font-family:Arial;" text-anchor="middle"><textPath startOffset="22.20632615414155" xlink:href="#id60">December</textPath></text></svg>